<svg width="16" height="14" viewBox="0 0 16 14" fill="none" xmlns="http://www.w3.org/2000/svg">
<path d="M7.13862 0.205286C7.20061 0.270293 7.24978 0.34749 7.28333 0.432463C7.31687 0.517437 7.33414 0.608517 7.33414 0.700502C7.33414 0.792487 7.31687 0.88357 7.28333 0.968544C7.24978 1.05352 7.20061 1.13071 7.13862 1.19572L2.27628 6.30013L15.3334 6.30013C15.5102 6.30013 15.6797 6.37387 15.8047 6.50514C15.9298 6.6364 16 6.81444 16 7.00008C16 7.18572 15.9298 7.36375 15.8047 7.49502C15.6797 7.62629 15.5102 7.70003 15.3334 7.70003L2.27628 7.70003L7.13863 12.8044C7.26371 12.9358 7.33399 13.1139 7.33399 13.2997C7.33399 13.4854 7.26371 13.6635 7.13863 13.7949C7.01354 13.9262 6.84388 14 6.66697 14C6.49007 14 6.32041 13.9262 6.19532 13.7949L0.195518 7.4953C0.133535 7.43029 0.0843644 7.35309 0.050816 7.26812C0.0172676 7.18315 -3.01955e-07 7.09207 -3.05976e-07 7.00008C-3.09997e-07 6.9081 0.0172676 6.81701 0.050816 6.73204C0.0843644 6.64707 0.133535 6.56987 0.195518 6.50486L6.19532 0.205286C6.25723 0.140207 6.33076 0.0885789 6.41169 0.053354C6.49262 0.0181291 6.57937 -2.87593e-07 6.66697 -2.91423e-07C6.75458 -2.95252e-07 6.84133 0.018129 6.92226 0.053354C7.00319 0.0885789 7.07671 0.140207 7.13862 0.205286Z" fill=""/>
</svg>
