<svg width="15" height="15" viewBox="0 0 15 15" fill="none" xmlns="http://www.w3.org/2000/svg">
<path d="M7.5 13.75C7.88706 13.7505 8.26466 13.6304 8.58031 13.4064C8.89595 13.1823 9.13396 12.8655 9.26125 12.5H5.73875C5.86604 12.8655 6.10405 13.1823 6.41969 13.4064C6.73534 13.6304 7.11294 13.7505 7.5 13.75ZM11.875 9.11625V6.25C11.875 4.23937 10.5094 2.54562 8.65937 2.03625C8.47625 1.575 8.02875 1.25 7.5 1.25C6.97125 1.25 6.52375 1.575 6.34063 2.03625C4.49063 2.54625 3.125 4.23937 3.125 6.25V9.11625L2.05813 10.1831C1.99997 10.2411 1.95386 10.3099 1.92243 10.3858C1.891 10.4616 1.87488 10.5429 1.875 10.625V11.25C1.875 11.4158 1.94085 11.5747 2.05806 11.6919C2.17527 11.8092 2.33424 11.875 2.5 11.875H12.5C12.6658 11.875 12.8247 11.8092 12.9419 11.6919C13.0592 11.5747 13.125 11.4158 13.125 11.25V10.625C13.1251 10.5429 13.109 10.4616 13.0776 10.3858C13.0461 10.3099 13 10.2411 12.9419 10.1831L11.875 9.11625Z" fill=""/>
</svg>
