<svg width="15" height="15" viewBox="0 0 15 15" fill="none" xmlns="http://www.w3.org/2000/svg">
<path d="M4.21875 1.875C3.59715 1.875 3.00101 2.12193 2.56147 2.56147C2.12193 3.00101 1.875 3.59715 1.875 4.21875V10.7812C1.875 11.4029 2.12193 11.999 2.56147 12.4385C3.00101 12.8781 3.59715 13.125 4.21875 13.125H10.7812C11.4029 13.125 11.999 12.8781 12.4385 12.4385C12.8781 11.999 13.125 11.4029 13.125 10.7812V4.21875C13.125 3.59715 12.8781 3.00101 12.4385 2.56147C11.999 2.12193 11.4029 1.875 10.7812 1.875H4.21875ZM10.1756 6.42563L6.89438 9.70688C6.85083 9.75053 6.79911 9.78516 6.74216 9.80879C6.68521 9.83242 6.62416 9.84459 6.5625 9.84459C6.50084 9.84459 6.43979 9.83242 6.38284 9.80879C6.32589 9.78516 6.27417 9.75053 6.23062 9.70688L4.82437 8.30063C4.78079 8.25704 4.74622 8.2053 4.72263 8.14836C4.69905 8.09142 4.68691 8.03038 4.68691 7.96875C4.68691 7.90712 4.69905 7.84608 4.72263 7.78914C4.74622 7.7322 4.78079 7.68046 4.82437 7.63687C4.91239 7.54886 5.03177 7.49941 5.15625 7.49941C5.21788 7.49941 5.27892 7.51155 5.33586 7.53513C5.3928 7.55872 5.44454 7.59329 5.48813 7.63687L6.5625 8.71219L9.51187 5.76187C9.59989 5.67386 9.71927 5.62441 9.84375 5.62441C9.96823 5.62441 10.0876 5.67386 10.1756 5.76187C10.2636 5.84989 10.3131 5.96927 10.3131 6.09375C10.3131 6.21823 10.2636 6.33761 10.1756 6.42563Z" fill=""/>
</svg>
