<svg width="15" height="15" viewBox="0 0 15 15" fill="none" xmlns="http://www.w3.org/2000/svg">
<path d="M2.25 4.5C2.25 3.90326 2.48705 3.33097 2.90901 2.90901C3.33097 2.48705 3.90326 2.25 4.5 2.25H10.5C11.0967 2.25 11.669 2.48705 12.091 2.90901C12.5129 3.33097 12.75 3.90326 12.75 4.5V10.5C12.75 11.0967 12.5129 11.669 12.091 12.091C11.669 12.5129 11.0967 12.75 10.5 12.75H4.5C3.90326 12.75 3.33097 12.5129 2.90901 12.091C2.48705 11.669 2.25 11.0967 2.25 10.5V4.5ZM4.5 3.375C4.20163 3.375 3.91548 3.49353 3.7045 3.7045C3.49353 3.91548 3.375 4.20163 3.375 4.5V10.5C3.375 10.7984 3.49353 11.0845 3.7045 11.2955C3.91548 11.5065 4.20163 11.625 4.5 11.625H10.5C10.7984 11.625 11.0845 11.5065 11.2955 11.2955C11.5065 11.0845 11.625 10.7984 11.625 10.5V4.5C11.625 4.20163 11.5065 3.91548 11.2955 3.7045C11.0845 3.49353 10.7984 3.375 10.5 3.375H4.5Z" fill=""/>
</svg>
