<svg width="20" height="15" viewBox="0 0 20 15" fill="none" xmlns="http://www.w3.org/2000/svg">
<g clip-path="url(#clip0_1_8)">
<path d="M19.0955 4.83665V13.2955C19.0955 13.7642 18.9286 14.1655 18.5947 14.4993C18.2609 14.8331 17.8597 15 17.3909 15H1.70909C1.24034 15 0.839062 14.8331 0.505255 14.4993C0.171449 14.1655 0.00454521 13.7642 0.00454521 13.2955V4.83665C0.317045 5.18466 0.67571 5.49361 1.08054 5.76349C3.65156 7.51065 5.41648 8.7358 6.37528 9.43892C6.78011 9.73722 7.10859 9.96982 7.36072 10.1367C7.61285 10.3036 7.94844 10.4741 8.36747 10.6481C8.78651 10.8221 9.17713 10.9091 9.53935 10.9091H9.56065C9.92287 10.9091 10.3135 10.8221 10.7325 10.6481C11.1516 10.4741 11.4871 10.3036 11.7393 10.1367C11.9914 9.96982 12.3199 9.73722 12.7247 9.43892C13.9321 8.56534 15.7006 7.3402 18.0301 5.76349C18.4349 5.48651 18.7901 5.17756 19.0955 4.83665ZM19.0955 1.70455C19.0955 2.26563 18.9214 2.80185 18.5734 3.31321C18.2254 3.82457 17.7922 4.26136 17.2737 4.62358C14.6033 6.47727 12.9413 7.63139 12.2879 8.08594C12.2169 8.13565 12.066 8.24396 11.8352 8.41087C11.6043 8.57777 11.4126 8.71271 11.2599 8.8157C11.1072 8.91868 10.9225 9.03409 10.7059 9.16193C10.4893 9.28977 10.2851 9.38565 10.0933 9.44957C9.90156 9.51349 9.72401 9.54545 9.56065 9.54545H9.53935C9.37599 9.54545 9.19844 9.51349 9.00668 9.44957C8.81491 9.38565 8.61072 9.28977 8.3941 9.16193C8.17749 9.03409 7.99283 8.91868 7.84013 8.8157C7.68743 8.71271 7.49567 8.57777 7.26484 8.41087C7.03402 8.24396 6.8831 8.13565 6.81207 8.08594C6.16577 7.63139 5.23537 6.98331 4.02088 6.14169C2.80639 5.30007 2.07841 4.79403 1.83693 4.62358C1.39659 4.32528 0.981108 3.91513 0.590483 3.39311C0.199858 2.87109 0.00454521 2.38636 0.00454521 1.93892C0.00454521 1.38494 0.151917 0.923295 0.446662 0.553977C0.741406 0.184659 1.16222 0 1.70909 0H17.3909C17.8526 0 18.2521 0.166903 18.5894 0.50071C18.9268 0.834517 19.0955 1.2358 19.0955 1.70455Z" fill=""/>
</g>
<defs>
<clipPath id="clip0_1_8">
<rect width="19.1" height="15" fill="white"/>
</clipPath>
</defs>
</svg>
