<svg width="15" height="15" viewBox="0 0 15 15" fill="none" xmlns="http://www.w3.org/2000/svg">
<rect width="15" height="15" fill="#F5F5F5"/>
<g clip-path="url(#clip0_0_1)">
<path d="M7.5 12.1875C10.0888 12.1875 12.1875 10.0888 12.1875 7.5C12.1875 4.91117 10.0888 2.8125 7.5 2.8125C4.91117 2.8125 2.8125 4.91117 2.8125 7.5C2.8125 10.0888 4.91117 12.1875 7.5 12.1875Z" fill=""/>
<path d="M7.5 14.0625C6.20206 14.0625 4.93327 13.6776 3.85407 12.9565C2.77487 12.2354 1.93374 11.2105 1.43704 10.0114C0.940341 8.81222 0.810381 7.49272 1.0636 6.21972C1.31681 4.94672 1.94183 3.77739 2.85961 2.85961C3.77739 1.94183 4.94672 1.31681 6.21972 1.0636C7.49272 0.810381 8.81222 0.940341 10.0114 1.43704C11.2105 1.93374 12.2354 2.77487 12.9565 3.85407C13.6776 4.93327 14.0625 6.20206 14.0625 7.5C14.0605 9.23987 13.3685 10.9079 12.1382 12.1382C10.9079 13.3685 9.23987 14.0605 7.5 14.0625ZM7.5 1.875C6.38748 1.875 5.29994 2.2049 4.37492 2.82298C3.44989 3.44107 2.72892 4.31957 2.30318 5.34741C1.87743 6.37524 1.76604 7.50624 1.98308 8.59738C2.20012 9.68853 2.73585 10.6908 3.52252 11.4775C4.30919 12.2641 5.31147 12.7999 6.40262 13.0169C7.49376 13.234 8.62476 13.1226 9.65259 12.6968C10.6804 12.2711 11.5589 11.5501 12.177 10.6251C12.7951 9.70006 13.125 8.61252 13.125 7.5C13.1233 6.00869 12.5301 4.57896 11.4756 3.52444C10.421 2.46993 8.99131 1.87674 7.5 1.875Z" fill=""/>
</g>
<defs>
<clipPath id="clip0_0_1">
<rect width="15" height="15" fill="white"/>
</clipPath>
</defs>
</svg>
