<svg width="15" height="15" viewBox="0 0 15 15" fill="none" xmlns="http://www.w3.org/2000/svg">
<g clip-path="url(#clip0_1_4)">
<path d="M6.875 1.25C6.0462 1.25 5.25134 1.57924 4.66529 2.16529C4.07924 2.75134 3.75 3.5462 3.75 4.375C3.75 5.2038 4.07924 5.99866 4.66529 6.58471C5.25134 7.17076 6.0462 7.5 6.875 7.5C7.7038 7.5 8.49866 7.17076 9.08471 6.58471C9.67076 5.99866 10 5.2038 10 4.375C10 3.5462 9.67076 2.75134 9.08471 2.16529C8.49866 1.57924 7.7038 1.25 6.875 1.25ZM6.875 8.125C5.37813 8.125 4.01563 8.55875 3.01375 9.16937C2.51375 9.47562 2.08625 9.835 1.7775 10.2256C1.47375 10.6106 1.25 11.0706 1.25 11.5625C1.25 12.0906 1.50688 12.5069 1.87688 12.8038C2.22688 13.085 2.68875 13.2712 3.17937 13.4012C4.16562 13.6619 5.48187 13.75 6.875 13.75L7.30313 13.7469C7.4078 13.7454 7.51043 13.7177 7.60161 13.6663C7.69279 13.6149 7.76959 13.5414 7.82496 13.4525C7.88033 13.3637 7.9125 13.2623 7.91851 13.1578C7.92452 13.0533 7.90419 12.949 7.85937 12.8544C7.62184 12.3529 7.49907 11.8049 7.5 11.25C7.5 10.4675 7.73937 9.7425 8.14812 9.14187C8.20888 9.05262 8.24548 8.94914 8.25435 8.84154C8.26322 8.73393 8.24406 8.62586 8.19875 8.52786C8.15343 8.42986 8.08349 8.34527 7.99576 8.28233C7.90802 8.2194 7.80548 8.18027 7.69813 8.16875C7.42938 8.14 7.15437 8.125 6.875 8.125ZM9.6875 9.18187C10.1581 8.9075 10.7369 8.87188 11.25 9.15313C11.7631 8.87188 12.3419 8.9075 12.8125 9.18187C13.385 9.51562 13.7663 10.1756 13.75 10.9244C13.7275 11.9056 12.97 12.6731 11.9463 13.2812C11.7319 13.4081 11.5069 13.5419 11.25 13.5419C10.9938 13.5419 10.7681 13.4081 10.5537 13.2812C9.53 12.6731 8.7725 11.905 8.75063 10.925C8.73375 10.1762 9.115 9.51562 9.6875 9.18187Z" fill=""/>
</g>
<defs>
<clipPath id="clip0_1_4">
<rect width="15" height="15" fill="white"/>
</clipPath>
</defs>
</svg>
