<svg width="15" height="15" viewBox="0 0 15 15" fill="none" xmlns="http://www.w3.org/2000/svg">
<path d="M13.125 12.5C13.125 12.6658 13.0592 12.8247 12.9419 12.9419C12.8247 13.0592 12.6658 13.125 12.5 13.125H2.5C2.33424 13.125 2.17527 13.0592 2.05806 12.9419C1.94085 12.8247 1.875 12.6658 1.875 12.5V5.93062C1.87493 5.83538 1.89664 5.74139 1.93845 5.65581C1.98026 5.57024 2.04108 5.49535 2.11625 5.43687L7.11625 1.54812C7.22596 1.46278 7.361 1.41644 7.5 1.41644C7.639 1.41644 7.77404 1.46278 7.88375 1.54812L12.8838 5.43687C12.9589 5.49535 13.0197 5.57024 13.0616 5.65581C13.1034 5.74139 13.1251 5.83538 13.125 5.93062V12.5ZM4.375 9.375V10.625H10.625V9.375H4.375Z" fill=""/>
</svg>
