<svg width="15" height="15" viewBox="0 0 15 15" fill="none" xmlns="http://www.w3.org/2000/svg">
<path d="M7.5 0.9375C6.13297 0.939113 4.8224 1.48288 3.85576 2.44951C2.88913 3.41615 2.34536 4.72672 2.34375 6.09375C2.34211 7.21089 2.70702 8.29771 3.3825 9.1875C3.3825 9.1875 3.52312 9.37266 3.54609 9.39938L7.5 14.0625L11.4558 9.39703C11.4764 9.37219 11.6175 9.1875 11.6175 9.1875L11.618 9.18609C12.2931 8.29669 12.6579 7.21037 12.6562 6.09375C12.6546 4.72672 12.1109 3.41615 11.1442 2.44951C10.1776 1.48288 8.86703 0.939113 7.5 0.9375ZM7.5 7.96875C7.12916 7.96875 6.76665 7.85878 6.45831 7.65276C6.14996 7.44673 5.90964 7.15389 5.76773 6.81128C5.62581 6.46867 5.58868 6.09167 5.66103 5.72796C5.73337 5.36424 5.91195 5.03015 6.17417 4.76792C6.4364 4.5057 6.77049 4.32712 7.13421 4.25478C7.49792 4.18243 7.87492 4.21956 8.21753 4.36148C8.56014 4.50339 8.85298 4.74371 9.05901 5.05206C9.26503 5.3604 9.375 5.72291 9.375 6.09375C9.37438 6.59084 9.17664 7.06739 8.82514 7.41889C8.47364 7.77039 7.99709 7.96813 7.5 7.96875Z" fill=""/>
</svg>
