<svg width="15" height="15" viewBox="0 0 15 15" fill="none" xmlns="http://www.w3.org/2000/svg">
<path d="M13.6225 12.6275L10.8398 9.84375C11.6742 8.75653 12.0637 7.39265 11.9294 6.02879C11.7951 4.66494 11.1471 3.40322 10.1167 2.4996C9.08636 1.59598 7.75087 1.11812 6.38115 1.16294C5.01143 1.20777 3.71005 1.77194 2.74099 2.74099C1.77194 3.71005 1.20777 5.01143 1.16294 6.38115C1.11812 7.75087 1.59598 9.08636 2.4996 10.1167C3.40322 11.1471 4.66494 11.7951 6.02879 11.9294C7.39265 12.0637 8.75653 11.6742 9.84375 10.8398L12.6287 13.6254C12.6941 13.6908 12.7718 13.7427 12.8572 13.7781C12.9427 13.8135 13.0343 13.8317 13.1268 13.8317C13.2193 13.8317 13.3108 13.8135 13.3963 13.7781C13.4818 13.7427 13.5594 13.6908 13.6248 13.6254C13.6902 13.56 13.7421 13.4823 13.7775 13.3969C13.8129 13.3114 13.8311 13.2198 13.8311 13.1273C13.8311 13.0348 13.8129 12.9433 13.7775 12.8578C13.7421 12.7723 13.6902 12.6947 13.6248 12.6293L13.6225 12.6275ZM2.57812 6.5625C2.57812 5.77446 2.8118 5.00413 3.24961 4.3489C3.68742 3.69367 4.3097 3.18299 5.03775 2.88142C5.7658 2.57985 6.56692 2.50095 7.33981 2.65468C8.11271 2.80842 8.82265 3.1879 9.37988 3.74512C9.9371 4.30235 10.3166 5.01229 10.4703 5.78519C10.6241 6.55808 10.5452 7.3592 10.2436 8.08725C9.94201 8.8153 9.43133 9.43758 8.7761 9.87539C8.12087 10.3132 7.35054 10.5469 6.5625 10.5469C5.50611 10.5458 4.4933 10.1257 3.74632 9.37868C2.99934 8.6317 2.57921 7.61889 2.57812 6.5625Z" fill=""/>
</svg>
