<svg width="15" height="15" viewBox="0 0 15 15" fill="none" xmlns="http://www.w3.org/2000/svg">
<path d="M7.5 1.40625C6.29477 1.40625 5.11661 1.76364 4.11449 2.43323C3.11238 3.10282 2.33133 4.05454 1.87011 5.16802C1.40889 6.28151 1.28821 7.50676 1.52334 8.68883C1.75847 9.8709 2.33884 10.9567 3.19107 11.8089C4.04329 12.6612 5.1291 13.2415 6.31117 13.4767C7.49324 13.7118 8.71849 13.5911 9.83198 13.1299C10.9455 12.6687 11.8972 11.8876 12.5668 10.8855C13.2364 9.88339 13.5937 8.70523 13.5937 7.5C13.592 5.88436 12.9495 4.33538 11.807 3.19295C10.6646 2.05052 9.11564 1.40796 7.5 1.40625ZM7.5 12.6562C6.48019 12.6562 5.48328 12.3538 4.63534 11.7873C3.7874 11.2207 3.12651 10.4154 2.73625 9.47321C2.34598 8.53103 2.24387 7.49428 2.44283 6.49407C2.64178 5.49385 3.13287 4.5751 3.85398 3.85398C4.5751 3.13287 5.49385 2.64178 6.49407 2.44283C7.49428 2.24387 8.53103 2.34598 9.47321 2.73625C10.4154 3.12651 11.2207 3.7874 11.7873 4.63534C12.3538 5.48328 12.6562 6.48019 12.6562 7.5C12.6547 8.86705 12.111 10.1777 11.1443 11.1443C10.1777 12.111 8.86705 12.6547 7.5 12.6562Z" fill=""/>
</svg>
