<svg width="15" height="15" viewBox="0 0 15 15" fill="none" xmlns="http://www.w3.org/2000/svg">
<path d="M2.8125 14.0625H12.1875V11.7188C12.1865 10.8488 11.8405 10.0148 11.2253 9.39965C10.6102 8.78451 9.77619 8.43849 8.90625 8.4375H6.09375C5.22381 8.43849 4.38979 8.78451 3.77465 9.39965C3.15951 10.0148 2.81349 10.8488 2.8125 11.7188V14.0625ZM4.21875 4.21875C4.21875 4.86772 4.41119 5.50212 4.77174 6.04171C5.13229 6.58131 5.64475 7.00188 6.24432 7.25023C6.84389 7.49858 7.50364 7.56356 8.14014 7.43695C8.77664 7.31034 9.3613 6.99783 9.82019 6.53894C10.2791 6.08005 10.5916 5.49539 10.7182 4.85889C10.8448 4.22239 10.7798 3.56264 10.5315 2.96307C10.2831 2.3635 9.86256 1.85104 9.32297 1.49049C8.78337 1.12994 8.14897 0.9375 7.5 0.9375C6.62976 0.9375 5.79516 1.2832 5.17981 1.89856C4.56445 2.51391 4.21875 3.34851 4.21875 4.21875Z" fill=""/>
</svg>
