<svg width="15" height="15" viewBox="0 0 15 15" fill="none" xmlns="http://www.w3.org/2000/svg">
<path d="M4.96219 1.53375C4.78643 1.70956 4.6877 1.94797 4.6877 2.19656C4.6877 2.44515 4.78643 2.68357 4.96219 2.85937L9.60281 7.5L4.96219 12.1406C4.79141 12.3174 4.69692 12.5543 4.69906 12.8001C4.70119 13.0459 4.79979 13.281 4.97361 13.4548C5.14743 13.6287 5.38256 13.7272 5.62837 13.7294C5.87418 13.7315 6.111 13.637 6.28781 13.4662L11.5913 8.16281C11.767 7.987 11.8657 7.74859 11.8657 7.5C11.8657 7.25141 11.767 7.01299 11.5913 6.83719L6.28781 1.53375C6.11201 1.358 5.87359 1.25926 5.625 1.25926C5.37641 1.25926 5.13799 1.358 4.96219 1.53375Z" fill=""/>
</svg>
